<svg width="37" height="37" viewBox="0 0 37 37" fill="none" xmlns="http://www.w3.org/2000/svg">
<path d="M18.2025 23.953L18.1744 23.9265C19.779 24.0872 21.3715 23.5234 22.5124 22.3909C23.6532 21.2584 24.2219 19.6767 24.0614 18.0824L24.0895 18.1089C23.9302 16.2341 24.611 14.3848 25.9501 13.0544C27.2893 11.724 29.1508 11.0477 31.0379 11.206L31.0098 11.1795C33.2949 11.3927 35.4692 10.1593 36.4458 8.09582C37.4224 6.03236 36.9916 3.58207 35.3687 1.96974C33.7457 0.357411 31.2793 -0.0706202 29.2022 0.899599C27.1252 1.86982 25.8837 4.02989 26.0983 6.30007L26.0716 6.27213C26.2315 8.14709 25.5509 9.99667 24.2116 11.3272C22.8723 12.6578 21.0105 13.3339 19.1232 13.1751L19.1499 13.203C17.5452 13.0424 15.9527 13.6061 14.8118 14.7387C13.671 15.8712 13.1023 17.4528 13.2628 19.0471L13.2362 19.0207C13.395 20.8954 12.7141 22.7443 11.375 24.0746C10.0359 25.4049 8.17482 26.0813 6.28778 25.9236L6.31442 25.9501C4.02929 25.7369 1.855 26.9703 0.878388 29.0337C-0.0982202 31.0972 0.33263 33.5475 1.95557 35.1598C3.57852 36.7721 6.04495 37.2002 8.122 36.23C10.199 35.2597 11.4406 33.0997 11.226 30.8295L11.2541 30.856C11.0948 28.9811 11.7755 27.1319 13.1147 25.8014C14.4539 24.471 16.3153 23.7948 18.2025 23.953Z" fill="#FF7143"/>
</svg>
